<svg height="512" viewBox="0 0 64 64" width="512" xmlns="http://www.w3.org/2000/svg"><g id="Config"><path d="m3 43v4a2.006 2.006 0 0 0 2 2h54a2.006 2.006 0 0 0 2-2v-4z" fill="#d1d3d4"/><path d="m61 13v30h-58v-30a2.006 2.006 0 0 1 2-2h54a2.006 2.006 0 0 1 2 2z" fill="#a7a9ac"/><path d="m6 14h52v26h-52z" fill="#414042"/><path d="m31 40h27v-26c0 14.371-12.076 26-27 26z" fill="#3a3a3b"/><path d="m26 49h12v6h-12z" fill="#a7a9ac"/><path d="m26 49h12v2h-12z" fill="#808285"/><path d="m21 55a2 2 0 0 0 -2 2v4h26v-4a2 2 0 0 0 -2-2z" fill="#d1d3d4"/><path d="m39 21a7 7 0 0 0 -14 0 6.89 6.89 0 0 0 1.26 4h11.48a6.89 6.89 0 0 0 1.26-4z" fill="#f1f2f2"/><path d="m19.34 14 1.08 1.08a13.361 13.361 0 0 0 -.79 1.92h-5.63v8h12.26a6.89 6.89 0 0 1 -1.26-4 7 7 0 0 1 14 0 6.89 6.89 0 0 1 -1.26 4h12.26v-8h-5.63a13.361 13.361 0 0 0 -.79-1.92l1.08-1.08 2.9-2.9-.1-.1-5.56-5.56-3.98 3.98a13.361 13.361 0 0 0 -1.92-.79v-5.63h-8v5.63a13.361 13.361 0 0 0 -1.92.79l-3.98-3.98-5.56 5.56-.1.1z" fill="#ffcd00"/><circle cx="18" cy="30" fill="#ed1c24" r="2"/><circle cx="25" cy="35" fill="#ffcd00" r="2"/><g fill="#231f20"><path d="m59 10h-11.126l-5.267-5.267a1 1 0 0 0 -1.414 0l-3.482 3.482c-.239-.107-.476-.2-.711-.294v-4.921a1 1 0 0 0 -1-1h-8a1 1 0 0 0 -1 1v4.921c-.235.09-.472.187-.711.294l-3.482-3.482a1.029 1.029 0 0 0 -1.414 0l-5.267 5.267h-11.126a3 3 0 0 0 -3 3v34a3 3 0 0 0 3 3h20v4h-4a3 3 0 0 0 -3 3v4a1 1 0 0 0 1 1h26a1 1 0 0 0 1-1v-4a3 3 0 0 0 -3-3h-4v-4h20a3 3 0 0 0 3-3v-34a3 3 0 0 0 -3-3zm-36.9-3.146 3.273 3.273a1 1 0 0 0 1.154.187 12.323 12.323 0 0 1 1.773-.731 1 1 0 0 0 .7-.953v-4.63h6v4.63a1 1 0 0 0 .7.953 12.323 12.323 0 0 1 1.776.731 1 1 0 0 0 1.154-.187l3.27-3.273 4.246 4.246-2.193 2.193-1.08 1.08a1 1 0 0 0 -.187 1.154 12.328 12.328 0 0 1 .731 1.776 1 1 0 0 0 .953.7h4.63v6h-9.579a8 8 0 1 0 -14.842 0h-9.579v-6.003h4.63a1 1 0 0 0 .953-.7 12.328 12.328 0 0 1 .731-1.776 1 1 0 0 0 -.187-1.154l-1.08-1.08-2.193-2.19zm-2.885 8.436c-.107.239-.2.475-.294.71h-4.921a1 1 0 0 0 -1 1v7h-3a1 1 0 0 0 0 2h44a1 1 0 0 0 0-2h-3v-7a1 1 0 0 0 -1-1h-4.921c-.09-.235-.187-.471-.294-.71l.29-.29h11.925v24h-50v-24h11.925zm6.785 5.71a6 6 0 0 1 12 0 5.9 5.9 0 0 1 -.824 3h-10.352a5.9 5.9 0 0 1 -.824-3zm-21-9h10.926l1 1h-10.926a1 1 0 0 0 -1 1v26a1 1 0 0 0 1 1h52a1 1 0 0 0 1-1v-26a1 1 0 0 0 -1-1h-10.926l1-1h10.926a1 1 0 0 1 1 1v29h-56v-29a1 1 0 0 1 1-1zm38 44a1 1 0 0 1 1 1v3h-24v-3a1 1 0 0 1 1-1zm-6-2h-10v-4h10zm22-6h-54a1 1 0 0 1 -1-1v-3h56v3a1 1 0 0 1 -1 1z"/><path d="m55 45h-2a1 1 0 0 0 0 2h2a1 1 0 0 0 0-2z"/><path d="m10 31h5.184a2.982 2.982 0 0 0 5.632 0h33.184a1 1 0 0 0 0-2h-33.184a2.982 2.982 0 0 0 -5.632 0h-5.184a1 1 0 0 0 0 2zm8-2a1 1 0 1 1 -1 1 1 1 0 0 1 1-1z"/><path d="m10 36h12.184a2.982 2.982 0 0 0 5.632 0h26.184a1 1 0 0 0 0-2h-26.184a2.982 2.982 0 0 0 -5.632 0h-12.184a1 1 0 0 0 0 2zm15-2a1 1 0 1 1 -1 1 1 1 0 0 1 1-1z"/></g></g></svg>